<?xml version="1.0" encoding="utf-8"?>
<!-- Generator: Adobe Illustrator 16.0.0, SVG Export Plug-In . SVG Version: 6.00 Build 0)  -->
<!DOCTYPE svg PUBLIC "-//W3C//DTD SVG 1.1//EN" "http://www.w3.org/Graphics/SVG/1.1/DTD/svg11.dtd">
<svg version="1.1"
	 id="svg2" xmlns:dc="http://purl.org/dc/elements/1.1/" xmlns:cc="http://creativecommons.org/ns#" xmlns:rdf="http://www.w3.org/1999/02/22-rdf-syntax-ns#" xmlns:svg="http://www.w3.org/2000/svg"
	 xmlns="http://www.w3.org/2000/svg" xmlns:xlink="http://www.w3.org/1999/xlink" x="0px" y="0px" width="39.467px"
	 height="39.211px" viewBox="0 0 39.467 39.211" enable-background="new 0 0 39.467 39.211" xml:space="preserve">
<g id="layer1">
	<path id="rect2985" d="M7.117-0.05c0,3.817-3.095,6.912-6.913,6.912v5.806c3.817,0,6.913,3.096,6.913,6.913
		c0,3.818-3.095,6.912-6.913,6.912v5.806c3.817,0,6.913,3.094,6.913,6.914h5.807c0-3.819,3.094-6.914,6.913-6.914
		c3.817,0,6.912,3.094,6.912,6.914h5.805c0-3.819,3.097-6.914,6.913-6.914v-5.806c-3.816,0-6.913-3.095-6.913-6.912
		c0-3.817,3.097-6.913,6.913-6.913V6.862c-3.816,0-6.913-3.095-6.913-6.912h-5.805c0,3.817-3.095,6.912-6.912,6.912
		c-3.818,0-6.913-3.095-6.913-6.912H7.117z"/>
	<path id="path3892" fill="none" stroke="#FF0000" stroke-width="0.2765" stroke-dasharray="0.553,0.2765" d="M10.117-3.497v47.52"
		/>
	<path id="path3916" fill="none" stroke="#FF0000" stroke-width="0.2765" stroke-dasharray="0.553,0.2765" d="M29.794-3.351v47.082"
		/>
	<path id="path3918" fill="none" stroke="#FF0000" stroke-width="0.2765" stroke-dasharray="0.553,0.2765" d="M-2.71,10.058h46.207"
		/>
	<path id="path3922" fill="none" stroke="#FF0000" stroke-width="0.2765" stroke-dasharray="0.553,0.2765" d="M-3.002,29.007
		c46.062,0,46.208,0,46.208,0"/>
</g>
</svg>
